<svg width="1366" height="627" viewBox="0 0 1366 627" fill="none" xmlns="http://www.w3.org/2000/svg">
<path d="M1599.93 150.223C1528.28 154.04 1442.67 156.413 1344.7 165.742C1202.16 179.279 1035.25 208.16 865.164 250.403C676.215 297.348 498.394 350.616 333.316 378.786C189.082 403.345 60.4732 402.537 -19.936 389.487C-99.604 376.527 -141.32 357.888 -141.32 357.888C13.2359 427.098 239.355 423.273 429.522 389.268C635.52 352.386 813.193 302.913 984.713 272.996C1132.94 247.165 1270 237.245 1383.91 237.938C1488.84 238.591 1580.52 245.521 1656.96 249.146C1689.25 250.662 1719.54 251.698 1747.96 252.02C1699.13 217.232 1651.68 182.59 1599.93 150.223Z" fill="url(#paint0_linear_1_246)"/>
<path d="M1718.35 230.872C1625.3 233.019 1508.93 222.743 1366.14 224.488C1222.89 226.208 1051.69 244.461 880.547 279.986C686.168 320.362 505.52 370.95 338.046 395.626C190.469 417.314 59.613 412.224 -20.2353 395.749C-101 379.055 -141.315 357.89 -141.315 357.89C2.82609 431.688 222.505 438.774 409.575 410.866C612.86 380.488 790.863 334.606 965.182 309.976C1115.12 288.819 1256.39 285.591 1371.83 293.596C1480.79 301.169 1574.54 315.178 1654.55 323.07C1733.98 330.859 1804.33 333.67 1865.01 330.975C1813.58 299.314 1766.5 265.253 1718.35 230.872Z" fill="url(#paint1_linear_1_246)"/>
<path d="M1842.42 315.534C1724.8 325.343 1575.24 300.556 1372.08 287.17C1229.82 277.769 1054.64 284.952 883.257 313.494C685.602 346.444 503.924 393.253 336.412 413.313C187.154 431.125 55.9283 420.896 -22.1572 400.899C-102.911 380.188 -141.215 356.737 -141.215 356.737C-64.7275 401.097 31.1567 430.523 126.611 439.621C226.292 449.087 329.662 441.078 430.805 427.988C640.456 400.824 824.373 359.897 1001.29 347.191C1152.32 336.383 1293.88 348.714 1405 366.781C1514.96 384.675 1606.7 404.118 1686.93 413.269C1817.76 428.095 1927.29 419.58 2009.5 403.132C1948.26 378.998 1893.88 348.64 1842.42 315.534Z" fill="url(#paint2_linear_1_246)"/>
<path d="M1956.35 379.943C1883.82 394.036 1797.88 400.641 1701.03 392.981C1605.36 385.395 1498 361.857 1363.8 344.894C1223.35 327.105 1045.84 324.919 874.824 347.466C676.406 373.666 495.236 416.293 329.65 431.449C180.319 445.051 50.4268 429.622 -25.2459 406.468C-105.038 382.016 -141.215 356.739 -141.215 356.739C-68.5108 402.783 24.5 431.449 115.28 447.488C210.532 460.119 311.837 455.602 410.754 445.423C616.44 424.222 799.274 386.781 975.627 378.736C1127.4 371.852 1269.83 390.109 1380.12 413.687C1491.6 437.534 1583.19 462.378 1665.29 475.074C1869.16 506.418 2029.82 471.334 2127.65 439.136C2065.87 425.489 2008.14 404.74 1956.35 379.943Z" fill="url(#paint3_linear_1_246)"/>
<path d="M2143.56 431.328C2112.46 425.585 2082.19 418.165 2053.46 409.335C1967.32 436.004 1862.19 457.305 1740.11 452.567C1623.42 447.995 1494.94 412.473 1323.82 382.859C1184.74 358.757 1006.33 350.431 836.412 368.279C640.124 388.935 461.84 426.424 301.289 435.828C154.622 444.353 29.0878 423.359 -42.8846 397.428C-120.013 369.604 -153.677 343.184 -153.677 343.184C-85.8954 391.946 -1.91205 428.149 87.581 445.035C176.69 461.816 274.796 462.101 370.237 455.808C569.309 442.644 749.38 409.803 923.273 406.091C1074.8 402.896 1216.84 425.608 1325.76 453.405C1437.77 482.005 1528.29 511.241 1610.99 527.025C1814.11 565.599 1983.94 530.871 2087.97 496.729C2106.5 474.951 2125.03 453.148 2143.56 431.328Z" fill="url(#paint4_linear_1_246)"/>
<defs>
<linearGradient id="paint0_linear_1_246" x1="-127.172" y1="195.518" x2="1738.72" y2="358.108" gradientUnits="userSpaceOnUse">
<stop stop-color="#800404"/>
<stop offset="0.53" stop-color="#E70000"/>
<stop offset="1" stop-color="#800404"/>
</linearGradient>
<linearGradient id="paint1_linear_1_246" x1="-130.635" y1="235.324" x2="1858.24" y2="408.632" gradientUnits="userSpaceOnUse">
<stop stop-color="#C54E06"/>
<stop offset="0.54" stop-color="#FF9119"/>
<stop offset="1" stop-color="#BB4600"/>
</linearGradient>
<linearGradient id="paint2_linear_1_246" x1="-134.535" y1="280.078" x2="2003.98" y2="466.425" gradientUnits="userSpaceOnUse">
<stop stop-color="#A29605"/>
<stop offset="0.525" stop-color="#F5E847"/>
<stop offset="1" stop-color="#A19605"/>
</linearGradient>
<linearGradient id="paint3_linear_1_246" x1="-137.308" y1="311.902" x2="2121.58" y2="508.737" gradientUnits="userSpaceOnUse">
<stop stop-color="#014E1F"/>
<stop offset="0.515" stop-color="#00AE44"/>
<stop offset="1" stop-color="#014E1F"/>
</linearGradient>
<linearGradient id="paint4_linear_1_246" x1="-151.879" y1="322.544" x2="2135.67" y2="521.877" gradientUnits="userSpaceOnUse">
<stop stop-color="#00798B"/>
<stop offset="0.525" stop-color="#00C1DE"/>
<stop offset="1" stop-color="#00798B"/>
</linearGradient>
</defs>
</svg>
